<svg width="18" height="19" viewBox="0 0 18 19" fill="none" xmlns="http://www.w3.org/2000/svg">
<g clip-path="url(#clip0_111_480)">
<path d="M8.91251 5.00781C11.3734 5.00781 13.4047 7.03906 13.4047 9.5C13.4047 12 11.3734 13.9922 8.91251 13.9922C6.41251 13.9922 4.42032 12 4.42032 9.5C4.42032 7.03906 6.41251 5.00781 8.91251 5.00781ZM8.91251 12.4297C10.5141 12.4297 11.8031 11.1406 11.8031 9.5C11.8031 7.89844 10.5141 6.60938 8.91251 6.60938C7.27188 6.60938 5.98282 7.89844 5.98282 9.5C5.98282 11.1406 7.31094 12.4297 8.91251 12.4297ZM14.6156 4.85156C14.6156 5.4375 14.1469 5.90625 13.5609 5.90625C12.975 5.90625 12.5063 5.4375 12.5063 4.85156C12.5063 4.26562 12.975 3.79688 13.5609 3.79688C14.1469 3.79688 14.6156 4.26562 14.6156 4.85156ZM17.5844 5.90625C17.6625 7.35156 17.6625 11.6875 17.5844 13.1328C17.5063 14.5391 17.1938 15.75 16.1781 16.8047C15.1625 17.8203 13.9125 18.1328 12.5063 18.2109C11.0609 18.2891 6.72501 18.2891 5.27969 18.2109C3.87344 18.1328 2.66251 17.8203 1.60782 16.8047C0.592194 15.75 0.279694 14.5391 0.201569 13.1328C0.123444 11.6875 0.123444 7.35156 0.201569 5.90625C0.279694 4.5 0.592194 3.25 1.60782 2.23438C2.66251 1.21875 3.87344 0.90625 5.27969 0.828125C6.72501 0.75 11.0609 0.75 12.5063 0.828125C13.9125 0.90625 15.1625 1.21875 16.1781 2.23438C17.1938 3.25 17.5063 4.5 17.5844 5.90625ZM15.7094 14.6562C16.1781 13.5234 16.0609 10.7891 16.0609 9.5C16.0609 8.25 16.1781 5.51562 15.7094 4.34375C15.3969 3.60156 14.8109 2.97656 14.0688 2.70312C12.8969 2.23438 10.1625 2.35156 8.91251 2.35156C7.62344 2.35156 4.88907 2.23438 3.75626 2.70312C2.97501 3.01562 2.38907 3.60156 2.07657 4.34375C1.60782 5.51562 1.72501 8.25 1.72501 9.5C1.72501 10.7891 1.60782 13.5234 2.07657 14.6562C2.38907 15.4375 2.97501 16.0234 3.75626 16.3359C4.88907 16.8047 7.62344 16.6875 8.91251 16.6875C10.1625 16.6875 12.8969 16.8047 14.0688 16.3359C14.8109 16.0234 15.4359 15.4375 15.7094 14.6562Z" fill="#F5F5F7"/>
</g>
<defs>
<clipPath id="clip0_111_480">
<rect width="18" height="19" fill="white"/>
</clipPath>
</defs>
</svg>
