<svg width="19" height="19" viewBox="0 0 19 19" fill="none" xmlns="http://www.w3.org/2000/svg">
<g clip-path="url(#clip0_111_472)">
<path d="M9.41251 5.00781C11.8734 5.00781 13.9047 7.03906 13.9047 9.5C13.9047 12 11.8734 13.9922 9.41251 13.9922C6.91251 13.9922 4.92032 12 4.92032 9.5C4.92032 7.03906 6.91251 5.00781 9.41251 5.00781ZM9.41251 12.4297C11.0141 12.4297 12.3031 11.1406 12.3031 9.5C12.3031 7.89844 11.0141 6.60938 9.41251 6.60938C7.77188 6.60938 6.48282 7.89844 6.48282 9.5C6.48282 11.1406 7.81094 12.4297 9.41251 12.4297ZM15.1156 4.85156C15.1156 5.4375 14.6469 5.90625 14.0609 5.90625C13.475 5.90625 13.0063 5.4375 13.0063 4.85156C13.0063 4.26562 13.475 3.79688 14.0609 3.79688C14.6469 3.79688 15.1156 4.26562 15.1156 4.85156ZM18.0844 5.90625C18.1625 7.35156 18.1625 11.6875 18.0844 13.1328C18.0063 14.5391 17.6938 15.75 16.6781 16.8047C15.6625 17.8203 14.4125 18.1328 13.0063 18.2109C11.5609 18.2891 7.22501 18.2891 5.77969 18.2109C4.37344 18.1328 3.16251 17.8203 2.10782 16.8047C1.09219 15.75 0.779694 14.5391 0.701569 13.1328C0.623444 11.6875 0.623444 7.35156 0.701569 5.90625C0.779694 4.5 1.09219 3.25 2.10782 2.23438C3.16251 1.21875 4.37344 0.90625 5.77969 0.828125C7.22501 0.75 11.5609 0.75 13.0063 0.828125C14.4125 0.90625 15.6625 1.21875 16.6781 2.23438C17.6938 3.25 18.0063 4.5 18.0844 5.90625ZM16.2094 14.6562C16.6781 13.5234 16.5609 10.7891 16.5609 9.5C16.5609 8.25 16.6781 5.51562 16.2094 4.34375C15.8969 3.60156 15.3109 2.97656 14.5688 2.70312C13.3969 2.23438 10.6625 2.35156 9.41251 2.35156C8.12344 2.35156 5.38907 2.23438 4.25626 2.70312C3.47501 3.01562 2.88907 3.60156 2.57657 4.34375C2.10782 5.51562 2.22501 8.25 2.22501 9.5C2.22501 10.7891 2.10782 13.5234 2.57657 14.6562C2.88907 15.4375 3.47501 16.0234 4.25626 16.3359C5.38907 16.8047 8.12344 16.6875 9.41251 16.6875C10.6625 16.6875 13.3969 16.8047 14.5688 16.3359C15.3109 16.0234 15.9359 15.4375 16.2094 14.6562Z" fill="#AEAEBC"/>
</g>
<defs>
<clipPath id="clip0_111_472">
<rect width="18" height="19" fill="white" transform="translate(0.5)"/>
</clipPath>
</defs>
</svg>
