<svg width="20" height="18" viewBox="0 0 20 18" fill="none" xmlns="http://www.w3.org/2000/svg">
<path d="M5.37189 18H1.73907V6.32031H5.37189V18ZM3.53595 4.75781C2.40314 4.75781 1.46564 3.78125 1.46564 2.60938C1.46564 1.47656 2.40314 0.539062 3.53595 0.539062C4.70782 0.539062 5.64532 1.47656 5.64532 2.60938C5.64532 3.78125 4.70782 4.75781 3.53595 4.75781ZM18.9266 18H15.3328V12.3359C15.3328 10.9688 15.2938 9.25 13.4188 9.25C11.5438 9.25 11.2703 10.6953 11.2703 12.2188V18H7.63751V6.32031H11.1141V7.92188H11.1531C11.6609 7.02344 12.8328 6.04688 14.5906 6.04688C18.2625 6.04688 18.9656 8.46875 18.9656 11.5938V18H18.9266Z" fill="#AEAEBC"/>
</svg>
