<svg width="19" height="18" viewBox="0 0 19 18" fill="none" xmlns="http://www.w3.org/2000/svg">
<g clip-path="url(#clip0_111_474)">
<path d="M4.87189 18H1.23907V6.32031H4.87189V18ZM3.03595 4.75781C1.90314 4.75781 0.965637 3.78125 0.965637 2.60938C0.965637 1.47656 1.90314 0.539062 3.03595 0.539062C4.20782 0.539062 5.14532 1.47656 5.14532 2.60938C5.14532 3.78125 4.20782 4.75781 3.03595 4.75781ZM18.4266 18H14.8328V12.3359C14.8328 10.9688 14.7938 9.25 12.9188 9.25C11.0438 9.25 10.7703 10.6953 10.7703 12.2188V18H7.13751V6.32031H10.6141V7.92188H10.6531C11.1609 7.02344 12.3328 6.04688 14.0906 6.04688C17.7625 6.04688 18.4656 8.46875 18.4656 11.5938V18H18.4266Z" fill="#F5F5F7"/>
</g>
<defs>
<clipPath id="clip0_111_474">
<rect width="19" height="18" fill="white"/>
</clipPath>
</defs>
</svg>
