<svg width="15" height="17" viewBox="0 0 15 17" fill="none" xmlns="http://www.w3.org/2000/svg">
<path d="M5.03125 16.8438C0.96875 12.8125 0.96875 6.21875 5.03125 2.1875C5.21875 2 5.46875 1.96875 5.6875 2.09375L7.71875 3.375C7.875 3.46875 7.96875 3.625 7.96875 3.8125C7.96875 3.875 7.96875 3.96875 7.9375 4.03125L6.90625 6.5625C6.84375 6.75 6.65625 6.875 6.40625 6.875H6.375L4.625 6.71875C3.96875 8.53125 3.96875 10.5312 4.625 12.3125L6.375 12.1562H6.40625C6.65625 12.1562 6.84375 12.2812 6.90625 12.4688L7.9375 15C7.96875 15.0625 7.96875 15.1562 7.96875 15.2188C7.96875 15.4062 7.875 15.5625 7.71875 15.6562L5.6875 16.9375C5.59375 17 5.5 17 5.40625 17C5.25 17 5.125 16.9688 5.03125 16.8438ZM9.71875 4C10.0625 4.625 10.0625 5.40625 9.71875 6.03125C9.59375 6.25 9.3125 6.28125 9.125 6.125L8.9375 5.9375C8.8125 5.8125 8.78125 5.625 8.875 5.46875C8.9375 5.34375 8.96875 5.1875 8.96875 5.03125C8.96875 4.84375 8.9375 4.6875 8.875 4.5625C8.78125 4.40625 8.8125 4.21875 8.9375 4.09375L9.125 3.90625C9.3125 3.75 9.59375 3.78125 9.71875 4ZM12.5625 1.15625C14.4688 3.375 14.4688 6.65625 12.5625 8.875C12.4375 9.0625 12.1875 9.0625 12.0312 8.90625L11.8438 8.75C11.7188 8.59375 11.6875 8.375 11.8125 8.21875C13.375 6.375 13.375 3.65625 11.8125 1.8125C11.6875 1.65625 11.7188 1.4375 11.8438 1.28125L12.0312 1.125C12.1875 0.96875 12.4375 0.96875 12.5625 1.15625ZM11.125 2.5625C12.25 4 12.2812 6.03125 11.125 7.46875C11 7.65625 10.75 7.6875 10.5938 7.53125L10.4062 7.34375C10.25 7.21875 10.25 7 10.3438 6.84375C11.1875 5.78125 11.1875 4.25 10.3438 3.1875C10.25 3.03125 10.25 2.8125 10.4062 2.6875L10.5938 2.5C10.75 2.34375 11 2.375 11.125 2.5625Z" fill="#5094F1"/>
</svg>
